{"title":"Silicon.Valley.S01.720p.HDTV.DD5.1.x264-CtrlHD","uid":10822808,"size":9376917430,"categoryP":"video","categoryS":"hd___tv_shows","magnet":"?xt=urn:btih:3e34533df01259d5bca0d1411197aae7286a80bc&amp;dn=Silicon.Valley.S01.720p.HDTV.DD5.1.x264-CtrlHD&amp;tr=udp%3A%2F%2Ftracker.openbittorrent.com%3A80&amp;tr=udp%3A%2F%2Fopen.demonii.com%3A1337&amp;tr=udp%3A%2F%2Ftracker.coppersurfer.tk%3A6969&amp;tr=udp%3A%2F%2Fexodus.desync.com%3A6969","seeders":30,"leechers":8,"uploader":null,"files":8,"time":1408552767,"description":" &lt;a href=&quot;http://www.imdb.com/title/tt2575988/&quot; rel=&quot;nofollow&quot; target=&quot;_NEW&quot;&gt;http://www.imdb.com/title/tt2575988/&lt;/a&gt;\n\n\ncontains\n\nSilicon Valley S01E06 720p HDTV DD5.1 x264 CtrlHD.mkv\nSilicon Valley S01E07 720p HDTV DD5.1 x264 CtrlHD.mkv\nSilicon Valley S01E08 720p HDTV DD5.1 x264 CtrlHD.mkv\nSilicon Valley S01E05 720p HDTV DD5.1 x264 CtrlHD.mkv\nSilicon Valley S01E04 720p HDTV DD5.1 x264 CtrlHD.mkv\nSilicon Valley S01E02 720p HDTV DD5.1 x264 CtrlHD.mkv\nSilicon Valley S01E03 720p HDTV DD5.1 x264 CtrlHD.mkv\nSilicon Valley S01E01 720p HDTV DD5.1 x264 CtrlHD.mkv\n\n\nGeneral\nUnique ID : 186197368184295989620703463709763615768 (0x8C144F06A66F9544951EF7B41226BC18)\nComplete name : /home/zeus/torrents/data/Silicon.Valley.S01.720p.HDTV.DD5.1.x264-CtrlHD/Silicon Valley S01E01 720p HDTV DD5.1 x264-CtrlHD.mkv\nFormat : Matroska\nFormat version : Version 4 / Version 2\nFile size : 1.05 GiB\nDuration : 29mn 48s\nOverall bit rate : 5 033 Kbps\nEncoded date : UTC 2014-04-07 22:17:04\nWriting application : mkvmerge v6.7.0 ('Back to the Ground') 32bit built on Jan 8 2014 15:03:17\nWriting library : libebml v1.3.0 + libmatroska v1.4.1\n\nVideo\nID : 1\nFormat : AVC\nFormat/Info : Advanced Video Codec\nFormat profile : &lt;a class=&quot;__cf_email__&quot; href=&quot;/cdn-cgi/l/email-protection&quot; data-cfemail=&quot;6a22030d022a265e445b&quot;&gt;[email&amp;#160;protected]&lt;/a&gt;&lt;script cf-hash='f9e31' type=&quot;text/javascript&quot;&gt;\n/* &lt;![CDATA[ */!function(){try{var t=&quot;currentScript&quot;in document?document.currentScript:function(){for(var t=document.getElementsByTagName(&quot;script&quot;),e=t.length;e--;)if(t[e].getAttribute(&quot;cf-hash&quot;))return t[e]}();if(t&amp;&amp;t.previousSibling){var e,r,n,i,c=t.previousSibling,a=c.getAttribute(&quot;data-cfemail&quot;);if(a){for(e=&quot;&quot;,r=parseInt(a.substr(0,2),16),n=2;a.length-n;n+=2)i=parseInt(a.substr(n,2),16)^r,e+=String.fromCharCode(i);e=document.createTextNode(e),c.parentNode.replaceChild(e,c)}}}catch(u){}}();/* ]]&gt; */&lt;/script&gt;\nFormat settings, CABAC : Yes\nFormat settings, ReFrames : 8 frames\nCodec ID : V_MPEG4/ISO/AVC\nDuration : 29mn 48s\nBit rate : 4 549 Kbps\nWidth : 1 280 pixels\nHeight : 714 pixels\nDisplay aspect ratio : 16:9\nFrame rate mode : Constant\nFrame rate : 23.976 fps\nColor space : YUV\nChroma subsampling : 4:2:0\nBit depth : 8 bits\nScan type : Progressive\nBits/(Pixel*Frame) : 0.208\nStream size : 970 MiB (90%)\nWriting library : x264 core 142 r2389kMod 956c8d8\nEncoding settings : cabac=1 / ref=8 / deblock=1:-3:-2 / analyse=0x3:0x133 / me=umh / subme=10 / psy=1 / fade_compensate=0.00 / psy_rd=1.10:0.10 / mixed_ref=1 / me_range=28 / chroma_me=1 / trellis=2 / 8x8dct=1 / cqm=0 / deadzone=21,11 / fast_pskip=1 / chroma_qp_offset=-3 / threads=6 / lookahead_threads=1 / sliced_threads=0 / nr=0 / decimate=1 / interlaced=0 / bluray_compat=0 / constrained_intra=0 / fgo=0 / bframes=6 / b_pyramid=2 / b_adapt=2 / b_bias=0 / direct=3 / weightb=1 / open_gop=0 / weightp=2 / keyint=250 / keyint_min=23 / scenecut=40 / intra_refresh=0 / rc=crf / mbtree=0 / crf=16.0000 / qcomp=0.60 / qpmin=0 / qpmax=69 / qpstep=4 / ip_ratio=1.40 / pb_ratio=1.30 / aq=2:1.00\nLanguage : English\nDefault : Yes\nForced : No\n\nAudio\nID : 2\nFormat : AC-3\nFormat/Info : Audio Coding 3\nMode extension : CM (complete main)\nFormat settings, Endianness : Big\nCodec ID : A_AC3\nDuration : 29mn 48s\nBit rate mode : Constant\nBit rate : 384 Kbps\nChannel(s) : 6 channels\nChannel positions : Front: L C R, Side: L R, LFE\nSampling rate : 48.0 KHz\nBit depth : 16 bits\nCompression mode : Lossy\nDelay relative to video : 10ms\nStream size : 81.9 MiB (8%)\nLanguage : English\nDefault : Yes\nForced : No\n\nText\nID : 3\nFormat : UTF-8\nCodec ID : S_TEXT/UTF8\nCodec ID/Info : UTF-8 Plain Text\nLanguage : English\nDefault : Yes\nForced : No","torrent":{"xt":"urn:btih:3e34533df01259d5bca0d1411197aae7286a80bc","amp;dn":"Silicon.Valley.S01.720p.HDTV.DD5.1.x264-CtrlHD","amp;tr":["udp%3A%2F%2Ftracker.openbittorrent.com%3A80","udp%3A%2F%2Fopen.demonii.com%3A1337","udp%3A%2F%2Ftracker.coppersurfer.tk%3A6969","udp%3A%2F%2Fexodus.desync.com%3A6969"],"infoHash":"3e34533df01259d5bca0d1411197aae7286a80bc","infoHashBuffer":{"type":"Buffer","data":[62,52,83,61,240,18,89,213,188,160,209,65,17,151,170,231,40,106,128,188]},"announce":[],"urlList":[]}}